<svg width="1054" height="310" viewBox="0 0 1054 310" fill="none" xmlns="http://www.w3.org/2000/svg">
<path d="M186.092 216.2C183.159 216.2 180.692 215.267 178.692 213.4C176.825 211.4 175.892 208.933 175.892 206V156.8C175.892 149.2 174.492 143 171.692 138.2C168.892 133.4 165.092 129.867 160.292 127.6C155.625 125.2 150.225 124 144.092 124C138.492 124 133.425 125.133 128.892 127.4C124.359 129.667 120.759 132.733 118.092 136.6C115.425 140.333 114.092 144.667 114.092 149.6H101.492C101.492 141.2 103.492 133.733 107.492 127.2C111.625 120.533 117.225 115.267 124.292 111.4C131.359 107.533 139.292 105.6 148.092 105.6C157.292 105.6 165.492 107.6 172.692 111.6C180.025 115.467 185.759 121.2 189.892 128.8C194.159 136.4 196.292 145.733 196.292 156.8V206C196.292 208.933 195.292 211.4 193.292 213.4C191.425 215.267 189.025 216.2 186.092 216.2ZM103.892 216.2C100.959 216.2 98.492 215.267 96.492 213.4C94.6254 211.4 93.692 208.933 93.692 206V116.8C93.692 113.733 94.6254 111.267 96.492 109.4C98.492 107.533 100.959 106.6 103.892 106.6C106.959 106.6 109.425 107.533 111.292 109.4C113.159 111.267 114.092 113.733 114.092 116.8V206C114.092 208.933 113.159 211.4 111.292 213.4C109.425 215.267 106.959 216.2 103.892 216.2ZM281.42 216.8C270.353 216.8 260.487 214.467 251.82 209.8C243.287 205 236.553 198.467 231.62 190.2C226.82 181.8 224.42 172.2 224.42 161.4C224.42 150.467 226.687 140.867 231.22 132.6C235.887 124.2 242.287 117.667 250.42 113C258.553 108.2 267.887 105.8 278.42 105.8C288.82 105.8 297.753 108.133 305.22 112.8C312.687 117.333 318.353 123.667 322.22 131.8C326.22 139.8 328.22 149.067 328.22 159.6C328.22 162.133 327.353 164.267 325.62 166C323.887 167.6 321.687 168.4 319.02 168.4H238.42V152.4H318.42L310.22 158C310.087 151.333 308.753 145.4 306.22 140.2C303.687 134.867 300.087 130.667 295.42 127.6C290.753 124.533 285.087 123 278.42 123C270.82 123 264.287 124.667 258.82 128C253.487 131.333 249.42 135.933 246.62 141.8C243.82 147.533 242.42 154.067 242.42 161.4C242.42 168.733 244.087 175.267 247.42 181C250.753 186.733 255.353 191.267 261.22 194.6C267.087 197.933 273.82 199.6 281.42 199.6C285.553 199.6 289.753 198.867 294.02 197.4C298.42 195.8 301.953 194 304.62 192C306.62 190.533 308.753 189.8 311.02 189.8C313.42 189.667 315.487 190.333 317.22 191.8C319.487 193.8 320.687 196 320.82 198.4C320.953 200.8 319.887 202.867 317.62 204.6C313.087 208.2 307.42 211.133 300.62 213.4C293.953 215.667 287.553 216.8 281.42 216.8ZM424.984 216C423.651 216 422.384 215.8 421.184 215.4C419.984 215 418.851 214.133 417.784 212.8L382.784 170.8L375.584 163.6L340.784 122.4C339.051 120.267 338.118 118 337.984 115.6C337.851 113.067 338.518 110.933 339.984 109.2C341.451 107.467 343.651 106.6 346.584 106.6C349.784 106.6 352.318 107.733 354.184 110L388.384 150.8L393.584 155.6L431.184 200.6C433.184 203 434.118 205.4 433.984 207.8C433.984 210.067 433.118 212 431.384 213.6C429.784 215.2 427.651 216 424.984 216ZM348.584 216C345.918 216 343.784 215.2 342.184 213.6C340.718 211.867 339.984 209.8 339.984 207.4C339.984 205 340.918 202.6 342.784 200.2L376.784 157.6L387.584 172.8L355.784 212.8C353.784 214.933 351.384 216 348.584 216ZM397.984 164.6L384.184 152.8L416.384 110C417.451 108.667 418.584 107.8 419.784 107.4C420.984 106.867 422.318 106.6 423.784 106.6C426.718 106.6 428.918 107.533 430.384 109.4C431.851 111.133 432.518 113.267 432.384 115.8C432.384 118.333 431.451 120.8 429.584 123.2L397.984 164.6ZM499.312 216C492.646 216 486.646 214.333 481.312 211C475.979 207.533 471.779 202.867 468.712 197C465.646 191.133 464.112 184.533 464.112 177.2V81.8C464.112 78.8667 465.046 76.4667 466.912 74.6C468.779 72.7333 471.179 71.8 474.112 71.8C477.046 71.8 479.446 72.7333 481.312 74.6C483.179 76.4667 484.112 78.8667 484.112 81.8V177.2C484.112 182.533 485.579 187 488.512 190.6C491.446 194.2 495.046 196 499.312 196H506.112C508.512 196 510.512 196.933 512.112 198.8C513.846 200.667 514.712 203.067 514.712 206C514.712 208.933 513.579 211.333 511.312 213.2C509.179 215.067 506.379 216 502.912 216H499.312ZM454.912 127.8C452.112 127.8 449.846 127 448.112 125.4C446.379 123.8 445.512 121.8 445.512 119.4C445.512 116.733 446.379 114.6 448.112 113C449.846 111.4 452.112 110.6 454.912 110.6H501.112C503.912 110.6 506.179 111.4 507.912 113C509.646 114.6 510.512 116.733 510.512 119.4C510.512 121.8 509.646 123.8 507.912 125.4C506.179 127 503.912 127.8 501.112 127.8H454.912ZM589.386 216.8C578.986 216.8 569.586 214.4 561.186 209.6C552.919 204.667 546.319 198 541.386 189.6C536.586 181.2 534.186 171.733 534.186 161.2C534.186 150.667 536.386 141.267 540.786 133C545.319 124.6 551.452 118 559.186 113.2C566.919 108.267 575.652 105.8 585.386 105.8C593.252 105.8 600.519 107.467 607.186 110.8C613.852 114 619.452 118.4 623.986 124V70C623.986 66.9333 624.919 64.4667 626.786 62.6C628.786 60.7333 631.252 59.8 634.186 59.8C637.252 59.8 639.719 60.7333 641.586 62.6C643.452 64.4667 644.386 66.9333 644.386 70V161.2C644.386 171.733 641.919 181.2 636.986 189.6C632.186 198 625.652 204.667 617.386 209.6C609.119 214.4 599.786 216.8 589.386 216.8ZM589.386 198.8C596.186 198.8 602.252 197.2 607.586 194C612.919 190.667 617.119 186.133 620.186 180.4C623.252 174.667 624.786 168.267 624.786 161.2C624.786 154 623.252 147.6 620.186 142C617.119 136.4 612.919 132 607.586 128.8C602.252 125.467 596.186 123.8 589.386 123.8C582.719 123.8 576.652 125.467 571.186 128.8C565.852 132 561.586 136.4 558.386 142C555.319 147.6 553.786 154 553.786 161.2C553.786 168.267 555.319 174.667 558.386 180.4C561.586 186.133 565.852 190.667 571.186 194C576.652 197.2 582.719 198.8 589.386 198.8ZM731.811 216.8C720.744 216.8 710.877 214.467 702.211 209.8C693.677 205 686.944 198.467 682.011 190.2C677.211 181.8 674.811 172.2 674.811 161.4C674.811 150.467 677.077 140.867 681.611 132.6C686.277 124.2 692.677 117.667 700.811 113C708.944 108.2 718.277 105.8 728.811 105.8C739.211 105.8 748.144 108.133 755.611 112.8C763.077 117.333 768.744 123.667 772.611 131.8C776.611 139.8 778.611 149.067 778.611 159.6C778.611 162.133 777.744 164.267 776.011 166C774.277 167.6 772.077 168.4 769.411 168.4H688.811V152.4H768.811L760.611 158C760.477 151.333 759.144 145.4 756.611 140.2C754.077 134.867 750.477 130.667 745.811 127.6C741.144 124.533 735.477 123 728.811 123C721.211 123 714.677 124.667 709.211 128C703.877 131.333 699.811 135.933 697.011 141.8C694.211 147.533 692.811 154.067 692.811 161.4C692.811 168.733 694.477 175.267 697.811 181C701.144 186.733 705.744 191.267 711.611 194.6C717.477 197.933 724.211 199.6 731.811 199.6C735.944 199.6 740.144 198.867 744.411 197.4C748.811 195.8 752.344 194 755.011 192C757.011 190.533 759.144 189.8 761.411 189.8C763.811 189.667 765.877 190.333 767.611 191.8C769.877 193.8 771.077 196 771.211 198.4C771.344 200.8 770.277 202.867 768.011 204.6C763.477 208.2 757.811 211.133 751.011 213.4C744.344 215.667 737.944 216.8 731.811 216.8ZM846.323 216.8C836.59 216.8 827.857 214.4 820.123 209.6C812.39 204.667 806.257 198.067 801.723 189.8C797.323 181.4 795.123 171.933 795.123 161.4C795.123 150.867 797.523 141.4 802.323 133C807.257 124.6 813.857 118 822.123 113.2C830.523 108.267 839.923 105.8 850.323 105.8C860.723 105.8 870.057 108.267 878.323 113.2C886.59 118 893.123 124.6 897.923 133C902.857 141.4 905.323 150.867 905.323 161.4H897.523C897.523 171.933 895.257 181.4 890.723 189.8C886.323 198.067 880.257 204.667 872.523 209.6C864.79 214.4 856.057 216.8 846.323 216.8ZM850.323 198.8C857.123 198.8 863.19 197.2 868.523 194C873.857 190.667 878.057 186.2 881.123 180.6C884.19 174.867 885.723 168.467 885.723 161.4C885.723 154.2 884.19 147.8 881.123 142.2C878.057 136.467 873.857 132 868.523 128.8C863.19 125.467 857.123 123.8 850.323 123.8C843.657 123.8 837.59 125.467 832.123 128.8C826.79 132 822.523 136.467 819.323 142.2C816.257 147.8 814.723 154.2 814.723 161.4C814.723 168.467 816.257 174.867 819.323 180.6C822.523 186.2 826.79 190.667 832.123 194C837.59 197.2 843.657 198.8 850.323 198.8ZM895.123 216.2C892.19 216.2 889.723 215.267 887.723 213.4C885.857 211.4 884.923 208.933 884.923 206V175.4L888.723 154.2L905.323 161.4V206C905.323 208.933 904.323 211.4 902.323 213.4C900.457 215.267 898.057 216.2 895.123 216.2ZM961.684 216C955.818 216 950.618 214.4 946.084 211.2C941.551 208 938.018 203.667 935.484 198.2C932.951 192.6 931.684 186.2 931.684 179V69.8C931.684 66.8667 932.618 64.4667 934.484 62.6C936.351 60.7333 938.751 59.8 941.684 59.8C944.618 59.8 947.018 60.7333 948.884 62.6C950.751 64.4667 951.684 66.8667 951.684 69.8V179C951.684 183.933 952.618 188 954.484 191.2C956.351 194.4 958.751 196 961.684 196H966.684C969.351 196 971.484 196.933 973.084 198.8C974.818 200.667 975.684 203.067 975.684 206C975.684 208.933 974.418 211.333 971.884 213.2C969.351 215.067 966.084 216 962.084 216H961.684Z" fill="white"/>
<g filter="url(#filter0_d_37_2)">
<mask id="path-2-outside-1_37_2" maskUnits="userSpaceOnUse" x="4" y="0" width="1046" height="302" fill="black">
<rect fill="white" x="4" width="1046" height="302"/>
<path d="M939.337 10C994.565 10 1039.34 54.7715 1039.34 110V191.69C1039.34 246.919 994.565 291.69 939.337 291.69H114C58.7716 291.69 14.0001 246.919 14 191.69V110C14 54.7715 58.7715 10 114 10H939.337Z"/>
</mask>
<path d="M1039.34 191.69L1049.34 191.69V191.69H1039.34ZM14 191.69H4V191.69L14 191.69ZM114 10V0V10ZM939.337 10V20C989.043 20 1029.34 60.2944 1029.34 110H1039.34H1049.34C1049.34 49.2487 1000.09 0 939.337 0V10ZM1039.34 110H1029.34V191.69H1039.34H1049.34V110H1039.34ZM1039.34 191.69L1029.34 191.69C1029.34 241.396 989.042 281.69 939.337 281.69V291.69V301.69C1000.09 301.69 1049.34 252.442 1049.34 191.69L1039.34 191.69ZM939.337 291.69V281.69H114V291.69V301.69H939.337V291.69ZM114 291.69V281.69C64.2945 281.69 24.0001 241.396 24 191.69L14 191.69L4 191.69C4.00014 252.442 53.2487 301.69 114 301.69V291.69ZM14 191.69H24V110H14H4V191.69H14ZM14 110H24C24 60.2944 64.2944 20 114 20V10V0C53.2487 9.53674e-07 4 49.2487 4 110H14ZM114 10V20H939.337V10V0H114V10Z" fill="white" mask="url(#path-2-outside-1_37_2)"/>
</g>
<defs>
<filter id="filter0_d_37_2" x="0" y="0" width="1053.34" height="309.69" filterUnits="userSpaceOnUse" color-interpolation-filters="sRGB">
<feFlood flood-opacity="0" result="BackgroundImageFix"/>
<feColorMatrix in="SourceAlpha" type="matrix" values="0 0 0 0 0 0 0 0 0 0 0 0 0 0 0 0 0 0 127 0" result="hardAlpha"/>
<feOffset dy="4"/>
<feGaussianBlur stdDeviation="2"/>
<feComposite in2="hardAlpha" operator="out"/>
<feColorMatrix type="matrix" values="0 0 0 0 0 0 0 0 0 0 0 0 0 0 0 0 0 0 0.25 0"/>
<feBlend mode="normal" in2="BackgroundImageFix" result="effect1_dropShadow_37_2"/>
<feBlend mode="normal" in="SourceGraphic" in2="effect1_dropShadow_37_2" result="shape"/>
</filter>
</defs>
</svg>
